<svg width="1598" height="3623" viewBox="0 0 1598 3623" fill="none" xmlns="http://www.w3.org/2000/svg">
<path d="M1598 257.89V3623H6.75995e-05V267.517C-0.000136172 248.264 0.000185707 88.1589 0.000185707 88.1589C5.99277 73.4658 23.9703 68.7727 37.7388 67.8496C53.5792 66.7876 68.4127 71.4682 79.4119 79.8066C88.552 57.4265 112.41 40.5923 141.883 38.6257C170.117 36.6984 195.833 48.8914 209.505 68.2429C218.761 60.6518 231.038 55.6566 244.865 54.7126C256.755 53.8866 268.103 56.2072 277.824 60.8091C284.834 29.6579 315.546 4.95721 354.508 2.28261C383.71 0.276659 410.705 11.1324 427.784 29.1859C444.593 13.0597 468.527 2.12528 495.754 0.276658C541.842 -2.8306 583.127 20.5328 598.967 55.4206C607.991 51.4873 617.984 48.9307 628.673 48.1834C664.459 45.7448 696.527 64.1524 708.456 91.449C721.043 81.3406 737.542 74.6934 756.055 73.3954C756.635 73.3561 757.216 73.3955 757.797 73.3561C772.437 43.6996 805.513 21.8701 845.791 19.0775C866.783 17.6615 886.767 21.5554 903.963 29.5399C916.86 13.2563 937.968 1.92862 962.677 0.237329C1002.57 -2.51593 1037.85 20.6901 1045.75 53.218C1058.57 41.7329 1076.19 34.1025 1096.18 32.7258C1107.29 31.9785 1118.1 33.2371 1127.98 36.1477C1140.49 17.9369 1162.87 5.03587 1189.4 3.18725C1230.76 0.394654 1267.09 25.292 1273.21 59.6291C1289.36 35.5184 1318.76 18.3302 1353.73 15.9309C1397.34 12.9417 1436.77 33.8271 1454.23 65.647C1465.66 48.4981 1486.5 36.3444 1511.28 34.6924C1550.05 32.0178 1593.35 55.5379 1598 88.1444C1598 88.1589 1598 88.1589 1598 88.1444V257.89Z" fill="#0B4C61"/>
</svg>


