<svg width="80" height="87" viewBox="0 0 80 87" fill="none" xmlns="http://www.w3.org/2000/svg">
<path d="M0 20.4237C0 14.3021 4.60167 9.16639 10.6995 8.62708C19.1631 7.87853 31.0111 7 40 7C48.9889 7 60.8369 7.87853 69.3005 8.62708C75.3983 9.16639 80 14.3021 80 20.4237V73.5763C80 79.6979 75.3983 84.8336 69.3005 85.3729C60.837 86.1215 48.989 87 40 87C31.011 87 19.163 86.1215 10.6995 85.3729C4.60166 84.8336 0 79.6979 0 73.5763V20.4237Z" fill="#0B4C61" fill-opacity="0.3"/>
<path d="M0 13.4237C0 7.30211 4.60167 2.16639 10.6995 1.62708C19.1631 0.878529 31.0111 0 40 0C48.9889 0 60.8369 0.878529 69.3005 1.62708C75.3983 2.16639 80 7.30212 80 13.4237V66.5763C80 72.6979 75.3983 77.8336 69.3005 78.3729C60.837 79.1215 48.989 80 40 80C31.011 80 19.163 79.1215 10.6995 78.3729C4.60166 77.8336 0 72.6979 0 66.5763V13.4237Z" fill="#0B4C61"/>
</svg>
