<svg width="35" height="31" viewBox="0 0 35 31" fill="none" xmlns="http://www.w3.org/2000/svg">
<g clip-path="url(#clip0)">
<path d="M32.3455 12.4926H17.1868L13.1624 15.1539L17.1868 17.8152H32.3455V12.4926Z" fill="#FFBD2F"/>
<path d="M2.02783 12.4926H17.1865V17.8152H2.02783V12.4926Z" fill="#FFBD2F"/>
<path d="M7.03801 0L2.77124 3.76211L3.41099 4.38776C9.68695 10.5254 9.68695 19.7823 3.41099 25.9199L2.77124 26.5456L7.03801 30.3077L7.74812 29.6263C11.8666 25.6746 14.1347 20.5349 14.1347 15.1539C14.1347 9.77293 11.8666 4.63314 7.74818 0.681359L7.03801 0Z" fill="#FFBD2F"/>
<path d="M30.9622 4.38776L31.6019 3.76211L27.3351 0L26.625 0.681359C22.5066 4.63308 20.2384 9.77287 20.2384 15.1538C20.2384 20.5348 22.5065 25.6746 26.625 29.6262L27.3351 30.3076L31.6018 26.5455L30.9621 25.9198C24.6861 19.7823 24.6861 10.5254 30.9622 4.38776V4.38776Z" fill="#FFBD2F"/>
</g>
<defs>
<clipPath id="clip0">
<rect width="34.3732" height="30.3077" fill="white"/>
</clipPath>
</defs>
</svg>
